<?xml version="1.0" standalone="no"?><!DOCTYPE svg PUBLIC "-//W3C//DTD SVG 1.1//EN" "http://www.w3.org/Graphics/SVG/1.1/DTD/svg11.dtd"><svg t="1597071707291" class="icon" viewBox="0 0 1024 1024" version="1.1" xmlns="http://www.w3.org/2000/svg" p-id="1851" xmlns:xlink="http://www.w3.org/1999/xlink" width="200" height="200"><defs><style type="text/css"></style></defs><path d="M512 51.2c-253.952 0-460.8 206.848-460.8 460.8s206.848 460.8 460.8 460.8S972.8 765.952 972.8 512s-206.848-460.8-460.8-460.8z m4.096 727.04c0 12.288-10.24 22.528-22.528 22.528s-22.528-10.24-22.528-22.528v-327.68c0-12.288 10.24-22.528 22.528-22.528s22.528 10.24 22.528 22.528v327.68z m0-430.08c0 12.288-10.24 22.528-22.528 22.528s-22.528-10.24-22.528-22.528v-61.44c0-12.288 10.24-22.528 22.528-22.528s22.528 10.24 22.528 22.528v61.44z" p-id="1852"></path></svg>